<svg xmlns="http://www.w3.org/2000/svg" viewBox="0 0 644 460"><g id="Layer_2" data-name="Layer 2"><g id="components"><g id="browser-chrome"><path id="MarkAnthonySerrano" d="M2,98H642a0,0,0,0,1,0,0V448a10,10,0,0,1-10,10H12A10,10,0,0,1,2,448V98A0,0,0,0,1,2,98Z" style="fill:none;stroke:#f0f0f4;stroke-miterlimit:10;stroke-width:4px"/><rect x="2" y="50" width="640" height="48" style="fill:#f0f0f4;stroke:#f0f0f4;stroke-miterlimit:10;stroke-width:4px"/><rect x="82" y="64" width="480" height="24" rx="12" style="fill:#fff"/><path d="M12,2H632a10,10,0,0,1,10,10V50a0,0,0,0,1,0,0H2a0,0,0,0,1,0,0V12A10,10,0,0,1,12,2Z" style="fill:#dfdfe6;stroke:#dfdfe6;stroke-miterlimit:10;stroke-width:4px"/><path d="M202,53H50L60,26a5,5,0,0,1,5-5H187a5,5,0,0,1,5,5Z" style="fill:#f0f0f4;fill-rule:evenodd"/><rect x="622" y="84" width="4" height="4" rx="2" style="fill:#d1d1d7"/><rect x="622" y="64" width="4" height="4" rx="2" style="fill:#d1d1d7"/><rect x="622" y="74" width="4" height="4" rx="2" style="fill:#d1d1d7"/><rect x="623.85" y="17.8" width="1.37" height="16.4" rx="0.67" transform="translate(201.31 -434) rotate(45)" style="fill:#b3b3b3"/><rect x="623.85" y="17.8" width="1.37" height="16.4" rx="0.67" transform="translate(1084.54 -397.22) rotate(135)" style="fill:#b3b3b3"/><rect x="543.85" y="17.8" width="1.37" height="16.4" rx="0.67" transform="translate(570.53 -518.54) rotate(90)" style="fill:#b3b3b3"/><path d="M578.85,20.31V31.68h11.37V20.31Zm10,10h-8.63V21.68h8.64Z" style="fill:#b3b3b3;fill-rule:evenodd"/></g></g></g></svg>