<svg xmlns="http://www.w3.org/2000/svg" viewBox="0 0 644 460"><g id="Layer_2" data-name="Layer 2"><g id="components"><g id="browser-safari"><path id="MarkAnthonySerrano" d="M2,98H642a0,0,0,0,1,0,0V448a10,10,0,0,1-10,10H12A10,10,0,0,1,2,448V98A0,0,0,0,1,2,98Z" style="fill:none;stroke:#d1d1d7;stroke-miterlimit:10;stroke-width:4px"/><path d="M12,2H632a10,10,0,0,1,10,10V54a0,0,0,0,1,0,0H2a0,0,0,0,1,0,0V12A10,10,0,0,1,12,2Z" style="fill:#dfdfe6;stroke:#d1d1d7;stroke-miterlimit:10;stroke-width:4px"/><rect x="598" y="54" width="44" height="44" style="fill:#d5d5db;stroke:#d1d1d7;stroke-miterlimit:10;stroke-width:4px"/><rect x="2" y="54" width="353.97" height="44" style="fill:#d5d5db;stroke:#d1d1d7;stroke-miterlimit:10;stroke-width:4px"/><rect x="162" y="16" width="320" height="24" rx="4" style="fill:#fff"/><circle cx="32" cy="28" r="8" style="fill:#ff544c"/><circle cx="62" cy="28" r="8" style="fill:#ffba12"/><circle cx="92" cy="28" r="8" style="fill:#15cb3a"/><rect x="355.97" y="54" width="242.03" height="44" style="fill:#dfdfe6;stroke:#d1d1d7;stroke-miterlimit:10;stroke-width:4px"/><rect x="600.54" y="16" width="28" height="24" rx="4" style="fill:#f0f0f4"/><rect x="560.54" y="16" width="28" height="24" rx="4" style="fill:#f0f0f4"/><rect x="619.33" y="68" width="1.33" height="16" rx="0.67" style="fill:#b3b3b3"/><rect x="619.33" y="68" width="1.33" height="16" rx="0.67" transform="translate(696 -544) rotate(90)" style="fill:#b3b3b3"/></g></g></g></svg>