<svg xmlns="http://www.w3.org/2000/svg" viewBox="0 0 525.07 440.01"><g id="Layer_2" data-name="Layer 2"><g id="county-monterey"><g id="county-monterey-2" data-name="county-monterey"><path d="M226.57,416a24,24,0,0,1-24,24H.07V392h202.5A24,24,0,0,1,226.57,416Z" style="fill:#1b5e20"/><path d="M283.57,376a16,16,0,0,1-16,16H.07V360h267.5A16,16,0,0,1,283.57,376Z" style="fill:#2e7d32"/><path d="M388.07,348a12,12,0,0,1-12,12H.07V336h376A12,12,0,0,1,388.07,348Z" style="fill:#ddd6cd"/><path d="M354.07,348a12.56,12.56,0,0,1-3.2,8.49,10.46,10.46,0,0,1-7.75,3.51H.07V336H343.12C349.17,336,354.07,341.38,354.07,348Z" style="fill:#666"/><path d="M283.07,348a12.56,12.56,0,0,1-3.2,8.49,10.46,10.46,0,0,1-7.75,3.51H.07V336H272.12C278.17,336,283.07,341.38,283.07,348Z" style="fill:#388e3c"/><g style="opacity:0.8"><path d="M332.15,231.37h0v34.95a.86.86,0,0,1,0,.28,1,1,0,0,1-1,.77H284.1v-36h0l24-8h0Z" style="fill:#ece8e7"/><path d="M291,233.38l9.63-3.21v23.2h-9.49a1,1,0,0,1-1-1v-18a1,1,0,0,1,.85-1h0Z" style="fill:#357cab"/><path d="M308.42,227.77l3.18,1.06v24.54h-7V228.83l3.18-1.06A1,1,0,0,1,308.42,227.77Z" style="fill:#357cab"/><path d="M326.1,234.38v18a1,1,0,0,1-1,1h-9.5V230.16l9.64,3.22A1,1,0,0,1,326.1,234.38Z" style="fill:#357cab"/><path d="M291,233.38a.11.11,0,0,0-.08,0H291Z" style="fill:#357cab"/><path d="M291,233.38a.11.11,0,0,0-.08,0H291Z" style="fill:#357cab"/><path d="M300.6,233.59v16.78h-5.24a.76.76,0,0,1-.76-.75V236.13a.74.74,0,0,1,.64-.74h0Z" style="fill:#d8f4f8"/><rect x="304.6" y="240.63" width="7" height="9.74" style="fill:#d8f4f8"/><path d="M311.6,232.26v4.87h-7v-4.87l3.26-1.09a.79.79,0,0,1,.48,0Z" style="fill:#d8f4f8"/><path d="M321.6,236.13v13.49a.76.76,0,0,1-.75.75H315.6V233.59l5.35,1.79A.75.75,0,0,1,321.6,236.13Z" style="fill:#d8f4f8"/><polygon points="315.6 233.59 315.6 250.37 311.6 250.37 311.6 240.63 304.6 240.63 304.6 250.37 300.6 250.37 300.6 233.59 304.6 232.26 304.6 237.13 311.6 237.13 311.6 232.26 315.6 233.59" style="fill:#d8f4f8"/><path d="M295.28,235.38h0Z" style="fill:#d8f4f8"/><path d="M295.28,235.38h0Z" style="fill:#d8f4f8"/><polygon points="315.6 230.16 315.6 253.37 311.6 253.37 311.6 240.63 304.6 240.63 304.6 253.37 300.6 253.37 300.6 230.17 304.6 228.83 304.6 237.13 311.6 237.13 311.6 228.83 315.6 230.16" style="fill:#357cab"/><path d="M321.6,236.13v13.49a.76.76,0,0,1-.75.75H315.6V233.59l5.35,1.79A.75.75,0,0,1,321.6,236.13Z" style="fill:#d8f4f8"/><path d="M321.6,236.13v13.49a.76.76,0,0,1-.75.75H318.6V234.59l2.35.79A.75.75,0,0,1,321.6,236.13Z" style="fill:#15c7ff;opacity:0.5"/><polygon points="311.6 232.26 311.6 237.13 308.6 237.13 308.6 231.26 311.6 232.26" style="fill:#15c7ff;opacity:0.5"/><rect x="308.6" y="240.63" width="3" height="9.74" style="fill:#15c7ff;opacity:0.5"/><polygon points="300.6 233.59 300.6 250.37 297.6 250.37 297.6 234.59 300.6 233.59" style="fill:#15c7ff;opacity:0.5"/><path d="M336.31,224.3l-15.55-5.18-12.53-4.18-12.54,4.18-15.55,5.18a4,4,0,0,0,2.53,7.59l25.56-8.52,25.55,8.52a4,4,0,1,0,2.53-7.59Z" style="fill:#aca6a6"/><path d="M336.31,224.3l-15.55-5.18-12.53-4.18-12.54,4.18-15.55,5.18a4,4,0,0,0,2.53,7.59l25.56-8.52,25.55,8.52a4,4,0,1,0,2.53-7.59Z" style="opacity:0.2"/><path d="M332.15,231.37h0v34.95a.86.86,0,0,1,0,.28,1,1,0,0,1-1,.77H284.1v-36h0l24-8h0Z" style="opacity:0"/></g><path d="M335.47,272a6.08,6.08,0,0,1,0,.61c0,.19-.05.37-.08.54a3.89,3.89,0,0,1-.12.49,1.31,1.31,0,0,1-.09.28c0,.1-.06.19-.1.29a5.29,5.29,0,0,1-.32.68,4.57,4.57,0,0,1-.29.47c-.1.15-.22.31-.34.46s-.25.28-.39.42a2.73,2.73,0,0,1-.25.23l-.24.21a4.45,4.45,0,0,1-.61.43l-.45.25a3.52,3.52,0,0,1-.63.27l-.32.11a5.66,5.66,0,0,1-.59.15l-.53.08h0a5.68,5.68,0,0,1-.59,0l-.57,0a5.52,5.52,0,0,1-1.34-.29,5,5,0,0,1-.5-.18l-.29-.14-.13-.07a4.86,4.86,0,0,1-.54-.33,2.34,2.34,0,0,1-.27-.2,5.8,5.8,0,0,1-1.06-1l-.07-.08-.09-.13a6,6,0,0,1-.86-1.7s0-.08,0-.13v0h0a5.91,5.91,0,0,1-.23-1.64,6,6,0,0,1,2.19-4.64l.44-.32a6,6,0,0,1,8,1.14l.14.18h0a5.43,5.43,0,0,1,.82,1.47c.05.12.09.24.13.36a2.17,2.17,0,0,1,.07.24,2.74,2.74,0,0,1,.09.39l.06.33A5.93,5.93,0,0,1,335.47,272Z" style="fill:#64cc56"/><path d="M335.47,272a6.08,6.08,0,0,1,0,.61c0,.19-.05.37-.08.54a3.89,3.89,0,0,1-.12.49,1.31,1.31,0,0,1-.09.28c0,.1-.06.19-.1.29a5.29,5.29,0,0,1-.32.68,4.57,4.57,0,0,1-.29.47c-.1.15-.22.31-.34.46s-.25.28-.39.42a2.73,2.73,0,0,1-.25.23l-.24.21a4.45,4.45,0,0,1-.61.43l-.45.25a3.52,3.52,0,0,1-.63.27l-.32.11a5.66,5.66,0,0,1-.59.15l-.53.08h0a5.68,5.68,0,0,1-.59,0l-.57,0a5.52,5.52,0,0,1-1.34-.29,5,5,0,0,1-.5-.18l-.27-.14-.15-.07a4.86,4.86,0,0,1-.54-.33h0l-.27-.19a5.8,5.8,0,0,1-1.06-1l-.16-.21a6,6,0,0,1-.86-1.7s0-.08,0-.13,0,0,0,0h0a6,6,0,0,0,10.39-1.58,5.94,5.94,0,0,0,.14-3.7,5.43,5.43,0,0,1,.82,1.47c.05.12.09.24.13.36a2.17,2.17,0,0,1,.07.24,2.74,2.74,0,0,1,.09.39l.06.33A5.93,5.93,0,0,1,335.47,272Z" style="opacity:0.2"/><path d="M354.47,272a6,6,0,1,1-.23-1.64A5.91,5.91,0,0,1,354.47,272Z" style="fill:#64cc56"/><path d="M354.47,272a6,6,0,0,1-11.77,1.64A6,6,0,0,0,353.47,270a5.91,5.91,0,0,0-.23-1.64A6,6,0,0,1,354.47,272Z" style="opacity:0.2"/><path d="M373.47,272a6,6,0,1,1-.23-1.64A5.91,5.91,0,0,1,373.47,272Z" style="fill:#64cc56"/><path d="M373.47,272a6,6,0,0,1-11.77,1.64A6,6,0,0,0,372.47,270a5.91,5.91,0,0,0-.23-1.64A6,6,0,0,1,373.47,272Z" style="opacity:0.2"/><path d="M392.47,272a6,6,0,1,1-.23-1.64A5.91,5.91,0,0,1,392.47,272Z" style="fill:#64cc56"/><path d="M392.47,272a6,6,0,0,1-11.77,1.64A6,6,0,0,0,391.47,270a5.91,5.91,0,0,0-.23-1.64A6,6,0,0,1,392.47,272Z" style="opacity:0.2"/><rect x="326.1" y="277.37" width="36" height="20" style="fill:#aca6a6"/><rect x="326.1" y="277.37" width="36" height="20" style="fill:#aca6a6;opacity:0.2"/><g style="opacity:0.8"><polygon points="143.06 197.29 143.01 197.29 143.01 235.29 95.01 235.29 95.01 197.29 95.06 197.29 119.06 189.29 143.06 197.29" style="fill:#ece8e7"/><path d="M106.19,201.3h0Z" style="fill:#d8f4f8"/><path d="M106.19,201.3h0Z" style="fill:#d8f4f8"/><path d="M147.22,190.22,131.67,185l-12.53-4.18L106.6,185l-15.55,5.18a4,4,0,1,0,2.53,7.59l25.56-8.52,25.55,8.52a4,4,0,1,0,2.53-7.59Z" style="fill:#aca6a6"/><path d="M147.22,190.22,131.67,185l-12.53-4.18L106.6,185l-15.55,5.18a4,4,0,1,0,2.53,7.59l25.56-8.52,25.55,8.52a4,4,0,1,0,2.53-7.59Z" style="opacity:0.2"/><path d="M101.88,199.3l9.63-3.21v23.2H102a1,1,0,0,1-1-1v-18a1,1,0,0,1,.85-1h0Z" style="fill:#357cab"/><path d="M119.33,193.69l3.18,1.06v24.54h-7V194.75l3.18-1.06A1,1,0,0,1,119.33,193.69Z" style="fill:#357cab"/><path d="M137,200.3v18a1,1,0,0,1-1,1h-9.5V196.08l9.64,3.22A1,1,0,0,1,137,200.3Z" style="fill:#357cab"/><path d="M101.94,199.3a.11.11,0,0,0-.08,0h0S101.92,199.29,101.94,199.3Z" style="fill:#357cab"/><path d="M101.94,199.3a.11.11,0,0,0-.08,0h0S101.92,199.29,101.94,199.3Z" style="fill:#357cab"/><path d="M111.51,199.51v16.78h-5.24a.76.76,0,0,1-.76-.75V202.05a.74.74,0,0,1,.64-.74h0Z" style="fill:#d8f4f8"/><rect x="115.51" y="206.55" width="7" height="9.74" style="fill:#d8f4f8"/><path d="M122.51,198.18v4.87h-7v-4.87l3.26-1.09a.79.79,0,0,1,.48,0Z" style="fill:#d8f4f8"/><path d="M132.51,202.05v13.49a.76.76,0,0,1-.75.75h-5.25V199.51l5.35,1.79A.75.75,0,0,1,132.51,202.05Z" style="fill:#d8f4f8"/><polygon points="126.51 199.51 126.51 216.29 122.51 216.29 122.51 206.55 115.51 206.55 115.51 216.29 111.51 216.29 111.51 199.51 115.51 198.18 115.51 203.05 122.51 203.05 122.51 198.18 126.51 199.51" style="fill:#d8f4f8"/><path d="M106.19,201.3h0Z" style="fill:#d8f4f8"/><path d="M106.19,201.3h0Z" style="fill:#d8f4f8"/><polygon points="126.51 196.08 126.51 219.29 122.51 219.29 122.51 206.55 115.51 206.55 115.51 219.29 111.51 219.29 111.51 196.09 115.51 194.75 115.51 203.05 122.51 203.05 122.51 194.75 126.51 196.08" style="fill:#357cab"/><path d="M132.51,202.05v13.49a.76.76,0,0,1-.75.75h-5.25V199.51l5.35,1.79A.75.75,0,0,1,132.51,202.05Z" style="fill:#d8f4f8"/><path d="M132.51,202.05v13.49a.76.76,0,0,1-.75.75h-2.25V200.51l2.35.79A.75.75,0,0,1,132.51,202.05Z" style="fill:#15c7ff;opacity:0.5"/><polygon points="122.51 198.18 122.51 203.05 119.51 203.05 119.51 197.18 122.51 198.18" style="fill:#15c7ff;opacity:0.5"/><rect x="119.51" y="206.55" width="3" height="9.74" style="fill:#15c7ff;opacity:0.5"/><polygon points="111.51 199.51 111.51 216.29 108.51 216.29 108.51 200.51 111.51 199.51" style="fill:#15c7ff;opacity:0.5"/></g><polygon points="36.18 231.94 16.18 231.94 18.18 6.94 34.18 6.94 36.18 231.94" style="fill:#ece8e7"/><polygon points="36.18 231.94 32.18 231.94 30.18 6.94 34.18 6.94 36.18 231.94" style="opacity:0.2"/><rect x="14.18" y="3.94" width="24" height="4" style="fill:#aca6a6"/><rect x="14.18" y="76.94" width="24" height="4" style="fill:#aca6a6"/><rect x="14.18" y="146.94" width="24" height="4" style="fill:#aca6a6"/><g style="opacity:0.8"><polygon points="66.96 234.47 46.96 234.47 48.96 99.47 64.96 99.47 66.96 234.47" style="fill:#ece8e7"/><polygon points="66.96 234.47 62.96 234.47 60.96 99.47 64.96 99.47 66.96 234.47" style="opacity:0.2"/><rect x="44.96" y="95.96" width="24" height="4" style="fill:#aca6a6"/><rect x="44.96" y="164.96" width="24" height="4" style="fill:#aca6a6"/></g><rect x="178.28" y="248.51" width="3.5" height="7.5" style="fill:#357cab"/><rect x="180.28" y="248.51" width="1.5" height="7.5" style="opacity:0.2"/><rect x="189.28" y="248.51" width="3.5" height="7.5" style="fill:#357cab"/><rect x="191.28" y="248.51" width="1.5" height="7.5" style="opacity:0.2"/><rect x="167.28" y="248.51" width="3.5" height="7.5" style="fill:#357cab"/><rect x="169.28" y="248.51" width="1.5" height="7.5" style="opacity:0.2"/><rect x="156.28" y="248.51" width="3.5" height="7.5" style="fill:#357cab"/><rect x="158.28" y="248.51" width="1.5" height="7.5" style="opacity:0.2"/><rect x="151.36" y="256.01" width="44.03" height="64" style="fill:#ece8e7"/><rect x="152.39" y="256.01" width="9" height="64" style="opacity:0.2"/><rect x="157.38" y="261.01" width="32" height="54" rx="0.99" style="fill:#357cab"/><rect x="161.38" y="265.01" width="24" height="46" style="fill:#d8f4f8"/><rect x="151.87" y="245.34" width="44" height="3.5" style="fill:#357cab"/><g style="opacity:0.15"><path d="M177.29,298v4a5,5,0,0,1-5-5v-4a4.71,4.71,0,0,1,1,.1A5,5,0,0,1,177.29,298Z" style="fill:#ffc420"/><path d="M177.29,298v4a4.71,4.71,0,0,1-1-.1V298a5,5,0,0,0-4-4.9V293A5,5,0,0,1,177.29,298Z" style="opacity:0.2"/><path d="M177.29,284v4a5,5,0,0,1-4,4.9,4.71,4.71,0,0,1-1,.1v-4a5,5,0,0,1,4-4.9A4.71,4.71,0,0,1,177.29,284Z" style="fill:#ffc420"/><path d="M177.29,284v4a5,5,0,0,1-5,5v-.1a5,5,0,0,0,4-4.9v-3.9A4.71,4.71,0,0,1,177.29,284Z" style="opacity:0.2"/><path d="M182.29,275v4a5,5,0,0,1-4,4.9,4.71,4.71,0,0,1-1,.1v-4a5,5,0,0,1,4-4.9A4.71,4.71,0,0,1,182.29,275Z" style="fill:#ffc420"/><path d="M182.29,275v4a5,5,0,0,1-5,5v-.1a5,5,0,0,0,4-4.9v-3.9A4.71,4.71,0,0,1,182.29,275Z" style="opacity:0.2"/><path d="M182.29,271v4a5,5,0,0,1-5-5v-4a4.71,4.71,0,0,1,1,.1A5,5,0,0,1,182.29,271Z" style="fill:#ffc420"/><path d="M182.29,271v4a4.71,4.71,0,0,1-1-.1V271a5,5,0,0,0-4-4.9V266A5,5,0,0,1,182.29,271Z" style="opacity:0.2"/><path d="M177.29,265v1a4.91,4.91,0,0,1-.94-.09h-.06a4.92,4.92,0,0,1-2-.9Z" style="fill:#ffc420"/><path d="M177.29,265v1a4.91,4.91,0,0,1-.94-.09h-.06V265Z" style="opacity:0.2"/></g><g style="opacity:0.6000000000000001"><path d="M185.38,268.07v7c-.11.14-.23.27-.35.4s-.2.2-.31.29a5,5,0,0,1-3.27,1.22v-4A5,5,0,0,1,185.38,268.07Z" style="fill:#ffc420"/><path d="M185.38,272.77V275c-.11.14-.23.27-.35.4s-.2.2-.31.29a5,5,0,0,1-3.27,1.22v-.1A5,5,0,0,0,185.38,272.77Z" style="opacity:0.2"/></g><g style="opacity:0.6000000000000001"><path d="M179.29,293v4a5,5,0,0,1-4,4.9,4.71,4.71,0,0,1-1,.1v-4a5,5,0,0,1,4-4.9A4.71,4.71,0,0,1,179.29,293Z" style="fill:#ffc420"/><path d="M179.29,293v4a5,5,0,0,1-5,5v-.1a5,5,0,0,0,4-4.9v-3.9A4.71,4.71,0,0,1,179.29,293Z" style="opacity:0.2"/><path d="M184.29,284v4a5,5,0,0,1-4,4.9,4.71,4.71,0,0,1-1,.1v-4a5,5,0,0,1,4-4.9A4.71,4.71,0,0,1,184.29,284Z" style="fill:#ffc420"/><path d="M184.29,284v4a5,5,0,0,1-5,5v-.1a5,5,0,0,0,4-4.9v-3.9A4.71,4.71,0,0,1,184.29,284Z" style="opacity:0.2"/><path d="M179.29,307v4a5,5,0,0,1-5-5v-4a4.71,4.71,0,0,1,1,.1A5,5,0,0,1,179.29,307Z" style="fill:#ffc420"/><path d="M179.29,307v4a4.71,4.71,0,0,1-1-.1V307a5,5,0,0,0-4-4.9V302A5,5,0,0,1,179.29,307Z" style="opacity:0.2"/></g><g style="opacity:0.6000000000000001"><path d="M169.79,268v4a4.91,4.91,0,0,1-.94-.09h-.06a5,5,0,0,1-4-4.9v-2h4a4.19,4.19,0,0,1,.53.89c.05.1.09.2.14.31l.06.18c0,.08,0,.16.08.24a5,5,0,0,1,.16.87A4.36,4.36,0,0,1,169.79,268Z" style="fill:#ffc420"/><path d="M169.79,268v4a4.91,4.91,0,0,1-.94-.09h-.06V268a4.94,4.94,0,0,0-1-3h1a4.19,4.19,0,0,1,.53.89c.05.1.09.2.14.31l.06.18c0,.08,0,.16.08.24a5,5,0,0,1,.16.87A4.36,4.36,0,0,1,169.79,268Z" style="opacity:0.2"/><path d="M174.79,277v4a5,5,0,0,1-5-5v-4a4.71,4.71,0,0,1,1,.1A5,5,0,0,1,174.79,277Z" style="fill:#ffc420"/><path d="M174.79,277v4a4.71,4.71,0,0,1-1-.1V277a5,5,0,0,0-4-4.9V272A5,5,0,0,1,174.79,277Z" style="opacity:0.2"/></g><rect x="180.38" y="265.01" width="5" height="46" style="fill:#15c7ff;opacity:0.5"/><g style="opacity:0.4"><path d="M166.29,302v4a5,5,0,0,1-4,4.9,4.71,4.71,0,0,1-1,.1v-4a5,5,0,0,1,4-4.9A4.71,4.71,0,0,1,166.29,302Z" style="fill:#ffc420"/><path d="M166.29,302v4a5,5,0,0,1-5,5v-.1a5,5,0,0,0,4-4.9v-3.9A4.71,4.71,0,0,1,166.29,302Z" style="opacity:0.2"/><path d="M171.29,293v4a5,5,0,0,1-4,4.9,4.71,4.71,0,0,1-1,.1v-4a5,5,0,0,1,4-4.9A4.71,4.71,0,0,1,171.29,293Z" style="fill:#ffc420"/><path d="M171.29,293v4a5,5,0,0,1-5,5v-.1a5,5,0,0,0,4-4.9v-3.9A4.71,4.71,0,0,1,171.29,293Z" style="opacity:0.2"/><path d="M171.29,289v4a5,5,0,0,1-5-5v-4a4.71,4.71,0,0,1,1,.1A5,5,0,0,1,171.29,289Z" style="fill:#ffc420"/><path d="M171.29,289v4a4.71,4.71,0,0,1-1-.1V289a5,5,0,0,0-4-4.9V284A5,5,0,0,1,171.29,289Z" style="opacity:0.2"/><path d="M166.29,280v4a4.91,4.91,0,0,1-.94-.09h-.06a5,5,0,0,1-3.91-4V275a4.71,4.71,0,0,1,.85.09,4.94,4.94,0,0,1,2.33,1.13c.11.09.21.19.31.29a5.07,5.07,0,0,1,.95,1.38c.05.1.09.2.14.31l.06.18c0,.08,0,.16.08.24a5,5,0,0,1,.16.87A4.36,4.36,0,0,1,166.29,280Z" style="fill:#ffc420"/><path d="M166.29,280v4a4.91,4.91,0,0,1-.94-.09h-.06V280a5,5,0,0,0-3.91-4.88V275a4.8,4.8,0,0,1,.85.08,4.94,4.94,0,0,1,2.33,1.13c.11.09.21.19.31.29a5.07,5.07,0,0,1,.95,1.38c.05.1.09.2.14.31l.06.18c0,.08,0,.16.08.24a5,5,0,0,1,.16.87A4.36,4.36,0,0,1,166.29,280Z" style="opacity:0.2"/></g><rect x="186.39" y="256.01" width="9" height="64" style="opacity:0.2"/><rect x="110.38" y="276.84" width="3" height="11" style="fill:#15c7ff;opacity:0.5"/><path d="M93.57,246.88a4,4,0,0,1-3,3.07,3.47,3.47,0,0,1-.85.1,4,4,0,0,1-.84-.09L0,231.08V222.9l90.49,19.24h0A4,4,0,0,1,93.57,246.88Z" style="fill:#aca6a6"/><path d="M95.06,247.29a4,4,0,0,1-4.75,3.08L0,231.17V223l92,19.54A4,4,0,0,1,95.06,247.29Z" style="fill:#aca6a6"/><path d="M93.57,246.88a4,4,0,0,1-3,3.06h0a3.47,3.47,0,0,1-.85.1,4,4,0,0,1-.84-.09l-5.26-1.12L0,231.08V222.9l83.57,17.77,6.92,1.47h.08A4,4,0,0,1,93.57,246.88Z" style="fill:#aca6a6"/><polygon points="24.18 244.51 24.18 276.75 11.18 276.75 11.18 241.7 16.68 242.89 24.18 244.51" style="fill:#d8f4f8"/><polygon points="80.18 256.61 80.18 276.75 67.18 276.75 67.18 253.8 72.68 254.99 80.18 256.61" style="fill:#d8f4f8"/><polygon points="63.18 252.93 63.18 276.75 48.18 276.75 48.18 249.69 63.18 252.93" style="fill:#d8f4f8"/><polygon points="44.18 248.83 44.18 276.75 28.18 276.75 28.18 245.37 36.68 247.21 44.18 248.83" style="fill:#d8f4f8"/><rect x="29.4" y="206.42" width="64" height="8" rx="4" transform="translate(-35.61 13.86) rotate(-10)" style="fill:#aca6a6"/><polygon points="87.07 209.96 87.07 241.4 36.71 230.69 36.71 218.83 87.07 209.96" style="fill:#ece8e7"/><path d="M79.07,214.59,49.3,219.84l-3.48.61a.62.62,0,0,0-.52.61v7.87a.64.64,0,0,0,.49.62l3.51.74,29.77,6.33,2.81.6a1,1,0,0,0,1.19-1V215.06a1,1,0,0,0-1.15-1Zm-1.19,17.78-27.8-5.91a1,1,0,0,1-.78-1v-.82a1,1,0,0,1,.81-1l27.8-4.91a1,1,0,0,1,1.16,1V231.4A1,1,0,0,1,77.88,232.37Z" style="fill:#357cab"/><polygon points="79.07 218.59 79.07 232.62 49.3 226.29 49.3 223.84 79.07 218.59" style="fill:#d8f4f8"/><polygon points="79.07 218.59 79.07 232.62 72.68 231.26 72.68 219.72 79.07 218.59" style="fill:#15c7ff;opacity:0.5"/><g style="opacity:0.2"><rect x="326.1" y="277.37" width="4" height="20"/><rect x="326.1" y="277.37" width="4" height="20" style="opacity:0.2"/></g><path d="M334.1,268.19v7.64q-.18.21-.39.42a2.73,2.73,0,0,1-.25.23l-.24.21a4.45,4.45,0,0,1-.61.43l-.45.25H326.1v-25h6v13.95a.86.86,0,0,1,0,.28A5.88,5.88,0,0,1,334.1,268.19Z" style="opacity:0.2"/><rect x="352.22" y="269.87" width="3.5" height="7.5" style="fill:#357cab"/><rect x="354.22" y="269.87" width="1.5" height="7.5" style="opacity:0.2"/><rect x="363.22" y="269.87" width="3.5" height="7.5" style="fill:#357cab"/><rect x="365.22" y="269.87" width="1.5" height="7.5" style="opacity:0.2"/><rect x="341.22" y="269.87" width="3.5" height="7.5" style="fill:#357cab"/><rect x="343.22" y="269.87" width="1.5" height="7.5" style="opacity:0.2"/><rect x="330.22" y="269.87" width="3.5" height="7.5" style="fill:#357cab"/><rect x="332.22" y="269.87" width="1.5" height="7.5" style="opacity:0.2"/><rect x="374.22" y="269.87" width="3.5" height="7.5" style="fill:#357cab"/><rect x="376.22" y="269.87" width="1.5" height="7.5" style="opacity:0.2"/><rect x="385.22" y="269.87" width="3.5" height="7.5" style="fill:#357cab"/><rect x="387.22" y="269.87" width="1.5" height="7.5" style="opacity:0.2"/><rect x="326.1" y="266.7" width="68" height="3.5" style="fill:#357cab"/><rect x="237.07" y="235.29" width="5" height="84.72" style="opacity:0.2"/><polygon points="209.07 235.29 237.07 235.29 237.07 223.29 217.07 223.29 209.07 235.29" style="fill:#aca6a6"/><rect x="232.07" y="223.29" width="5" height="12" style="opacity:0.2"/><rect x="195.38" y="235.29" width="46.69" height="84.72" style="fill:#ece8e7"/><rect x="204.76" y="243.37" width="28" height="50" rx="1.01" style="fill:#357cab"/><rect x="208.81" y="259.37" width="8" height="18" style="fill:#d8f4f8"/><rect x="211.81" y="259.37" width="5" height="18" style="fill:#15c7ff;opacity:0.5"/><rect x="220.7" y="259.37" width="8" height="18" style="fill:#d8f4f8"/><rect x="223.81" y="259.37" width="4.91" height="18" style="fill:#15c7ff;opacity:0.5"/><rect x="208.81" y="247.37" width="8" height="8" style="fill:#d8f4f8"/><rect x="211.81" y="247.37" width="5" height="8" style="fill:#15c7ff;opacity:0.5"/><rect x="220.81" y="247.37" width="8" height="8" style="fill:#d8f4f8"/><rect x="223.9" y="247.37" width="4.91" height="8" style="fill:#15c7ff;opacity:0.5"/><rect x="208.81" y="281.37" width="8" height="8" style="fill:#d8f4f8"/><rect x="211.81" y="281.37" width="5" height="8" style="fill:#15c7ff;opacity:0.5"/><rect x="220.81" y="281.37" width="8" height="8" style="fill:#d8f4f8"/><rect x="223.9" y="281.37" width="4.91" height="8" style="fill:#15c7ff;opacity:0.5"/><path d="M205.78,302h26a1,1,0,0,1,1,1v17a0,0,0,0,1,0,0h-28a0,0,0,0,1,0,0V303A1,1,0,0,1,205.78,302Z" style="fill:#357cab"/><rect x="208.76" y="306.05" width="19.94" height="13.96" style="fill:#d8f4f8"/><rect x="223.71" y="306.05" width="4.99" height="13.96" style="fill:#15c7ff;opacity:0.5"/><rect x="250.17" y="256.37" width="12" height="12" style="fill:#357cab"/><rect x="266.17" y="256.37" width="12" height="12" style="fill:#357cab"/><rect x="250.17" y="256.37" width="12" height="12" style="fill:#d8f4f8"/><rect x="266.17" y="256.37" width="12" height="12" style="fill:#d8f4f8"/><polygon points="145.07 235.29 117.07 235.29 117.07 223.29 137.07 223.29 145.07 235.29" style="fill:#aca6a6"/><rect x="104.38" y="276.84" width="9" height="11" style="fill:#ece8e7"/><rect x="104.38" y="276.84" width="9" height="11" style="fill:#357cab"/><rect x="104.38" y="276.84" width="9" height="11" style="fill:#d8f4f8"/><rect x="121.38" y="276.84" width="4" height="11" style="fill:#15c7ff;opacity:0.5"/><rect x="117.38" y="276.84" width="8" height="11" style="fill:#357cab"/><rect x="129.38" y="276.84" width="9" height="11" style="fill:#357cab"/><rect x="104.38" y="247.84" width="34" height="25" style="fill:#357cab"/><rect x="117.38" y="276.84" width="8" height="11" style="fill:#d8f4f8"/><rect x="129.38" y="276.84" width="9" height="11" style="fill:#d8f4f8"/><rect x="104.38" y="247.84" width="34" height="25" style="fill:#d8f4f8"/><polygon points="145.07 235.29 139.07 235.29 131.07 223.29 137.07 223.29 145.07 235.29" style="opacity:0.2"/><rect x="290.15" y="256.37" width="28" height="37" style="fill:#357cab"/><rect x="290.15" y="256.37" width="28" height="37" style="fill:#d8f4f8"/><rect id="bounding-box" x="0.07" width="525" height="440" style="opacity:0"/></g></g></g></svg>